Input #0, mov,mp4,m4a,3gp,3g2,mj2, from '/home/hbattu/projects/huberman-gpt/huberman-audio/mp3/tmpibyrpnmr.mp4':
  Metadata:
    major_brand     : dash
    minor_version   : 0
    compatible_brands: iso6mp41
    creation_time   : 2022-02-22T14:31:22.000000Z
  Duration: 01:52:40.93, start: 0.000000, bitrate: 129 kb/s
    Stream #0:0(eng): Audio: aac (LC) (mp4a / 0x6134706D), 44100 Hz, stereo, fltp, 0 kb/s (default)
    Metadata:
      creation_time   : 2022-02-22T14:31:22.000000Z
      handler_name    : ISO Media file produced by Google Inc.
Stream mapping:
  Stream #0:0 -> #0:0 (aac (native) -> mp3 (libmp3lame))
Press [q] to stop, [?] for help
[graph_0_in_0_0 @ 0x557bc26e3f80] tb:1/44100 samplefmt:fltp samplerate:44100 chlayout:0x3
Output #0, mp3, to '../huberman-audio/mp3/PctD-ki8dCc.mp3':
  Metadata:
    major_brand     : dash
    minor_version   : 0
    compatible_brands: iso6mp41
    TSSE            : Lavf58.29.100
    Stream #0:0(eng): Audio: mp3 (libmp3lame), 44100 Hz, stereo, fltp, delay 1105 (default)
    Metadata:
      creation_time   : 2022-02-22T14:31:22.000000Z
      handler_name    : ISO Media file produced by Google Inc.
      encoder         : Lavc58.54.100 libmp3lame
No more output streams to write to, finishing.
size=  105640kB time=01:52:40.93 bitrate= 128.0kbits/s speed=81.1x    
[AVIOContext @ 0x557bc25d5900] Statistics: 0 seeks, 167 writeouts
video:0kB audio:105640kB subtitle:0kB other streams:0kB global headers:0kB muxing overhead: 0.000320%
Input file #0 (/home/hbattu/projects/huberman-gpt/huberman-audio/mp3/tmpibyrpnmr.mp4):
  Input stream #0:0 (audio): 291169 packets read (108174895 bytes); 291169 frames decoded (298157056 samples); 
  Total: 291169 packets (108174895 bytes) demuxed
Output file #0 (../huberman-audio/mp3/PctD-ki8dCc.mp3):
  Output stream #0:0 (audio): 258817 frames encoded (298157056 samples); 258818 packets muxed (108175360 bytes); 
  Total: 258818 packets (108175360 bytes) muxed
[AVIOContext @ 0x557bc25ff1c0] Statistics: 2 seeks, 414 writeouts
[AVIOContext @ 0x557bc25de880] Statistics: 109418883 bytes read, 0 seeks
